<svg id="bold" enable-background="new 0 0 24 24" viewBox="0 0 24 24" xmlns="http://www.w3.org/2000/svg"><path d="m20 16h-3c-.352 0-.686.072-1 .184v-1.184c0-1.654-1.346-3-3-3h-3c-.352 0-.686.072-1 .184v-1.184c0-1.654-1.346-3-3-3h-3c-1.654 0-3 1.346-3 3v11c0 1.103.897 2 2 2h19c1.103 0 2-.897 2-2v-3c0-1.654-1.346-3-3-3zm-11-1c0-.552.448-1 1-1h3c.552 0 1 .448 1 1v7h-5z" fill="#fff"/><path d="m23.833 8.446-2-3.009c-.224-.337-.63-.505-1.026-.427-.397.078-.708.388-.787.785l-.319 1.597c-4.457-1.141-8.483-3.502-11.985-7.09-.386-.396-1.019-.402-1.414-.018-.396.386-.404 1.019-.018 1.414 3.794 3.887 8.169 6.438 13.025 7.657l-.289 1.449c-.079.396.088.802.424 1.027.168.113.362.169.556.169.193 0 .387-.056.555-.168l3-2c.459-.306.584-.926.278-1.386z" fill="#fff"/></svg>