<svg id="semibold_color" enable-background="new 0 0 32 32" viewBox="0 0 32 32" xmlns="http://www.w3.org/2000/svg"><g><path d="m21 32h-10c-1.7 0-3-1.3-3-3v-15h-5c-.4 0-.8-.3-.9-.6s0-.8.3-1.1l13-12c.4-.4 1-.4 1.4 0l13 12c.3.3.4.7.3 1.1s-.7.6-1.1.6h-5v15c0 1.7-1.3 3-3 3zm-15.4-20h3.4c.6 0 1 .4 1 1v16c0 .6.4 1 1 1h10c.6 0 1-.4 1-1v-16c0-.6.4-1 1-1h3.4l-10.4-9.6z" fill="#fff"/></g><g><path d="m16 18c-.6 0-1-.4-1-1s.4-1 1-1h2c.6 0 1-.4 1-1s-.4-1-1-1h-1v-1c0-.6-.4-1-1-1s-1 .4-1 1v1.2c-1.2.4-2 1.5-2 2.8 0 1.7 1.3 3 3 3 .6 0 1 .4 1 1s-.4 1-1 1h-2c-.6 0-1 .4-1 1s.4 1 1 1h1v1c0 .6.4 1 1 1s1-.4 1-1v-1.2c1.2-.4 2-1.5 2-2.8 0-1.7-1.3-3-3-3z" fill="#fff"/></g></svg>